<?xml version="1.0" encoding="UTF-8"?><svg xmlns="http://www.w3.org/2000/svg" xmlns:xlink="http://www.w3.org/1999/xlink" viewBox="0 0 262.7 122.24"><defs><style>.g{mask:url(#e);}.h,.i,.j,.k,.l,.m{fill:none;stroke-miterlimit:10;}.h,.j{stroke-width:3.22px;}.h,.k,.m{stroke:#4d4d4d;}.i,.j,.l{stroke:#000;}.i,.k{stroke-width:2.2px;}.n{fill:#4d4d4d;}.o{fill:url(#f);}.l,.m{stroke-width:2.71px;}.p{fill:url(#d);}</style><radialGradient id="d" cx="60.2" cy="61" fx="60.2" fy="61" r="56.28" gradientTransform="matrix(1, 0, 0, 1, 0, 0)" gradientUnits="userSpaceOnUse"><stop offset="0" stop-color="#e6e6e6"/><stop offset="1" stop-color="#666"/></radialGradient><radialGradient id="f" cx="53.52" cy="61.27" fx="53.52" fy="61.27" r="64.12" gradientTransform="translate(8.97) scale(.97 1)" gradientUnits="userSpaceOnUse"><stop offset=".12" stop-color="#000" stop-opacity="0"/><stop offset=".12" stop-color="#fff"/><stop offset=".49" stop-color="#fff"/></radialGradient><mask id="e" x="-1.43" y="-2.75" width="124.79" height="128.03" maskUnits="userSpaceOnUse"><g><g><g><g><g><polygon class="j" points="61.21 61.31 32.5 32.6 61.21 3.89 61.21 61.31"/><polygon class="j" points="61.03 60.93 89.74 89.64 61.03 118.35 61.03 60.93"/></g><g><polygon class="j" points="60.93 61.21 89.64 32.5 118.35 61.21 60.93 61.21"/><polygon class="j" points="61.31 61.03 32.6 89.74 3.89 61.03 61.31 61.03"/></g></g><g><g><polygon class="j" points="61.04 61.32 61.04 20.71 101.65 20.71 61.04 61.32"/><polygon class="j" points="61.19 60.92 61.19 101.52 20.59 101.52 61.19 60.92"/></g><g><polygon class="j" points="60.92 61.04 101.52 61.04 101.52 101.65 60.92 61.04"/><polygon class="j" points="61.32 61.19 20.71 61.19 20.71 20.59 61.32 61.19"/></g></g></g><g><g><g><polygon class="l" points="61.19 61.27 38.72 38.8 61.19 16.34 61.19 61.27"/><polygon class="l" points="61.05 60.97 83.51 83.43 61.05 105.9 61.05 60.97"/></g><g><polygon class="l" points="60.97 61.19 83.43 38.72 105.9 61.19 60.97 61.19"/><polygon class="l" points="61.27 61.05 38.8 83.51 16.34 61.05 61.27 61.05"/></g></g><g><g><polygon class="l" points="61.06 61.27 61.06 29.5 92.83 29.5 61.06 61.27"/><polygon class="l" points="61.18 60.96 61.18 92.73 29.4 92.73 61.18 60.96"/></g><g><polygon class="l" points="60.96 61.06 92.73 61.06 92.73 92.83 60.96 61.06"/><polygon class="l" points="61.27 61.18 29.5 61.18 29.5 29.4 61.27 61.18"/></g></g></g><g><g><g><polygon class="i" points="61.16 61.22 46.11 46.17 61.16 31.11 61.16 61.22"/><polygon class="i" points="61.07 61.02 76.12 76.07 61.07 91.12 61.07 61.02"/></g><g><polygon class="i" points="61.02 61.16 76.07 46.11 91.12 61.16 61.02 61.16"/><polygon class="i" points="61.22 61.07 46.17 76.12 31.11 61.07 61.22 61.07"/></g></g><g><g><polygon class="i" points="61.08 61.22 61.08 39.93 82.37 39.93 61.08 61.22"/><polygon class="i" points="61.16 61.01 61.16 82.3 39.87 82.3 61.16 61.01"/></g><g><polygon class="i" points="61.01 61.08 82.3 61.08 82.3 82.37 61.01 61.08"/><polygon class="i" points="61.22 61.16 39.93 61.16 39.93 39.87 61.22 61.16"/></g></g></g></g><path class="o" d="M3.28,31.94C-1.77,42.98-1.54,53.08-1.35,58.44c1.05,30.52,18.21,52.24,20.97,54.51,4.68,3.84,24.93,13.06,47.53,12.28,7.55-.26,28.53-2.42,43.27-20.14,15.1-18.17,13.26-40.18,12.36-50.89-.91-10.9-2.57-30.71-18.03-44.53C87.95-5.35,66.37-2.98,57.36-1.99,51.16-1.31,16.39,3.32,3.28,31.94Z"/></g></mask></defs><g id="a"/><g id="b"><g id="c"><g><g><polyline class="p" points="20.94 59.67 20.94 21.14 32.45 32.65 60.34 4.75 60.34 21.48 100.35 21.48 88.83 32.99 116.51 60.67 101.49 60.67 101.49 100.53 89.76 88.8 61.33 117.24 61.33 101.52 21.89 101.52 33.14 90.28 3.89 61.03 20.71 61.03 20.94 59.67"/><g><g><g class="g"><g><g><g><g><polygon class="h" points="61.21 61.31 32.5 32.6 61.21 3.89 61.21 61.31"/><polygon class="h" points="61.03 60.93 89.74 89.64 61.03 118.35 61.03 60.93"/></g><g><polygon class="h" points="60.93 61.21 89.64 32.5 118.35 61.21 60.93 61.21"/><polygon class="h" points="61.31 61.03 32.6 89.74 3.89 61.03 61.31 61.03"/></g></g><g><g><polygon class="h" points="61.04 61.32 61.04 20.71 101.65 20.71 61.04 61.32"/><polygon class="h" points="61.19 60.92 61.19 101.52 20.59 101.52 61.19 60.92"/></g><g><polygon class="h" points="60.92 61.04 101.52 61.04 101.52 101.65 60.92 61.04"/><polygon class="h" points="61.32 61.19 20.71 61.19 20.71 20.59 61.32 61.19"/></g></g></g><g><g><g><polygon class="m" points="61.19 61.27 38.72 38.8 61.19 16.34 61.19 61.27"/><polygon class="m" points="61.05 60.97 83.51 83.43 61.05 105.9 61.05 60.97"/></g><g><polygon class="m" points="60.97 61.19 83.43 38.72 105.9 61.19 60.97 61.19"/><polygon class="m" points="61.27 61.05 38.8 83.51 16.34 61.05 61.27 61.05"/></g></g><g><g><polygon class="m" points="61.06 61.27 61.06 29.5 92.83 29.5 61.06 61.27"/><polygon class="m" points="61.18 60.96 61.18 92.73 29.4 92.73 61.18 60.96"/></g><g><polygon class="m" points="60.96 61.06 92.73 61.06 92.73 92.83 60.96 61.06"/><polygon class="m" points="61.27 61.18 29.5 61.18 29.5 29.4 61.27 61.18"/></g></g></g><g><g><g><polygon class="k" points="61.16 61.22 46.11 46.17 61.16 31.11 61.16 61.22"/><polygon class="k" points="61.07 61.02 76.12 76.07 61.07 91.12 61.07 61.02"/></g><g><polygon class="k" points="61.02 61.16 76.07 46.11 91.12 61.16 61.02 61.16"/><polygon class="k" points="61.22 61.07 46.17 76.12 31.11 61.07 61.22 61.07"/></g></g><g><g><polygon class="k" points="61.08 61.22 61.08 39.93 82.37 39.93 61.08 61.22"/><polygon class="k" points="61.16 61.01 61.16 82.3 39.87 82.3 61.16 61.01"/></g><g><polygon class="k" points="61.01 61.08 82.3 61.08 82.3 82.37 61.01 61.08"/><polygon class="k" points="61.22 61.16 39.93 61.16 39.93 39.87 61.22 61.16"/></g></g></g></g></g><circle class="k" cx="61.12" cy="61.12" r="7.19"/><circle class="n" cx="61.12" cy="61.12" r="4.01"/></g><g><g><path class="n" d="M140.71,60.05c0,1.72-.86,2.58-2.58,2.58h-11.28v-28.24h11.21c1.67,0,2.51,.87,2.51,2.6v7.27c0,.96-.3,1.71-.9,2.24-.08,.07-.82,.54-2.2,1.39,1.43,.88,2.19,1.36,2.27,1.44,.65,.57,.97,1.34,.97,2.33v8.39Zm-4.35-15.27v-6.84h-5.29v8.28h3.25l2.04-1.44Zm.11,14.29v-8.05l-2.07-1.37h-3.32v9.42h5.4Z"/><path class="n" d="M155.56,62.63h-3.95v-.63c-.94,.14-1.88,.29-2.81,.43-1.23,.18-2.16,.27-2.8,.27-1.5,0-2.26-.74-2.26-2.22v-6.57c0-1.5,.78-2.26,2.33-2.26h5.58v-4.19h-3.95v2.6h-3.73v-3.41c0-1.5,.78-2.26,2.33-2.26h6.98c1.53,0,2.29,.75,2.29,2.26v15.97Zm-3.92-3.28v-4.89h-3.95v5.03l3.95-.14Z"/><path class="n" d="M169.98,60.38c0,1.5-.76,2.26-2.29,2.26h-6.95c-1.53,0-2.29-.75-2.29-2.26v-3.92h3.95v3.07h3.63v-2.89l-6.33-3.73c-.83-.49-1.25-1.15-1.25-1.98v-4.26c0-1.5,.78-2.26,2.33-2.26h6.87c1.53,0,2.29,.75,2.29,2.26v3.66h-3.92v-2.81h-3.63v2.63l6.32,3.7c.84,.48,1.26,1.15,1.26,2.02v4.51Z"/><path class="n" d="M184.65,60.38c0,1.5-.78,2.26-2.33,2.26h-7.13c-1.55,0-2.33-.75-2.33-2.26v-13.71c0-1.5,.78-2.26,2.33-2.26h7.13c1.55,0,2.33,.75,2.33,2.26v6.69l-1.14,1.14h-6.69v5.11h3.88v-3.03h3.95v3.81Zm-3.95-8.57v-4.37h-3.88v4.37h3.88Z"/><path class="n" d="M201.72,60.05c0,1.72-.86,2.58-2.58,2.58h-11.28v-28.24h11.21c1.67,0,2.51,.87,2.51,2.6v7.27c0,.96-.3,1.71-.9,2.24-.08,.07-.82,.54-2.2,1.39,1.43,.88,2.19,1.36,2.27,1.44,.65,.57,.97,1.34,.97,2.33v8.39Zm-4.35-15.27v-6.84h-5.29v8.28h3.25l2.04-1.44Zm.11,14.29v-8.05l-2.07-1.37h-3.32v9.42h5.4Z"/><path class="n" d="M208.99,62.63h-4.06v-28.24h4.06v28.24Z"/><path class="n" d="M223.8,62.63h-3.95v-.63c-.94,.14-1.88,.29-2.81,.43-1.23,.18-2.16,.27-2.8,.27-1.5,0-2.26-.74-2.26-2.22v-6.57c0-1.5,.78-2.26,2.33-2.26h5.58v-4.19h-3.95v2.6h-3.73v-3.41c0-1.5,.78-2.26,2.33-2.26h6.98c1.53,0,2.29,.75,2.29,2.26v15.97Zm-3.92-3.28v-4.89h-3.95v5.03l3.95-.14Z"/><path class="n" d="M238.85,62.63h-4.11v-.63c-2.79,.49-4.35,.74-4.69,.74-1.03,0-1.85-.3-2.44-.91s-.88-1.43-.88-2.48v-11.28c0-1.48,.53-2.51,1.59-3.09,.77-.43,1.94-.65,3.5-.65,.35,0,.85,.01,1.52,.04,.66,.02,1.13,.04,1.41,.04v-10.01h4.11v28.24Zm-4.11-3.55v-11.22h-2.54c-.91,0-1.37,.46-1.37,1.37v8.72c0,.89,.43,1.33,1.3,1.33,.2,0,1.08-.07,2.62-.2Z"/><path class="n" d="M253.63,60.38c0,1.5-.78,2.26-2.33,2.26h-7.13c-1.55,0-2.33-.75-2.33-2.26v-13.71c0-1.5,.78-2.26,2.33-2.26h7.13c1.55,0,2.33,.75,2.33,2.26v6.69l-1.14,1.14h-6.69v5.11h3.88v-3.03h3.95v3.81Zm-3.95-8.57v-4.37h-3.88v4.37h3.88Z"/></g><g><path class="n" d="M133.11,86.29h-6.18v-18.83h6.11v1.48h-4.44v7.02h4.04v1.5h-4.04v7.34h4.51v1.48Z"/><path class="n" d="M143.83,86.29h-1.6v-10.27l-3.52,.1v10.18h-1.6v-11.7h1.6v.32c.63-.08,1.25-.16,1.89-.25,.77-.1,1.4-.14,1.9-.14,.89,0,1.34,.44,1.34,1.31v10.47Z"/><path class="n" d="M152.2,86.29h-2.27c-.9,0-1.35-.45-1.35-1.36v-8.94h-1.41v-1.41h1.41v-3.65h1.58v3.65h2.04v1.41h-2.04v8.89h2.04v1.41Z"/><path class="n" d="M162.37,84.93c0,.91-.45,1.36-1.35,1.36h-3.85c-.9,0-1.35-.45-1.35-1.36v-8.99c0-.91,.45-1.36,1.35-1.36h3.85c.9,0,1.35,.45,1.35,1.36v4.21l-.54,.56h-4.45v4.23h3.44v-2.14h1.55v2.12Zm-1.55-5.49v-3.52h-3.44v3.52h3.44Z"/><path class="n" d="M172.71,78.43h-1.58v-2.42l-2.95,.1v10.18h-1.6v-11.7h1.6v.32c.53-.08,1.06-.16,1.6-.25,.64-.1,1.17-.14,1.6-.14,.88,0,1.32,.44,1.32,1.31v2.61Z"/><path class="n" d="M180.53,86.29h-2.27c-.9,0-1.35-.45-1.35-1.36v-8.94h-1.41v-1.41h1.41v-3.65h1.58v3.65h2.04v1.41h-2.04v8.89h2.04v1.41Z"/><path class="n" d="M190.77,86.29h-1.58v-.32c-.63,.09-1.27,.17-1.9,.25-.79,.1-1.42,.14-1.89,.14-.87,0-1.31-.43-1.31-1.3v-4.27c0-.9,.45-1.35,1.36-1.35h3.77v-3.52h-3.44v2h-1.55v-1.97c0-.91,.45-1.36,1.35-1.36h3.85c.9,0,1.35,.45,1.35,1.36v10.35Zm-1.55-1.46v-4.14h-3.57v4.21l3.57-.07Z"/><path class="n" d="M196.67,72.02h-1.62v-2.02h1.62v2.02Zm-.02,14.27h-1.58v-11.7h1.58v11.7Z"/><path class="n" d="M207.66,86.29h-1.6v-10.27l-3.52,.1v10.18h-1.6v-11.7h1.6v.32c.63-.08,1.25-.16,1.89-.25,.77-.1,1.4-.14,1.9-.14,.89,0,1.34,.44,1.34,1.31v10.47Z"/><path class="n" d="M223.59,86.29h-1.6v-10.27l-3.49,.1v10.18h-1.59v-10.27l-3.49,.1v10.18h-1.6v-11.7h1.6v.32c.63-.08,1.25-.16,1.88-.25,.76-.1,1.39-.14,1.89-.14s.85,.15,1.08,.45c.67-.09,1.34-.18,2.01-.28,.87-.11,1.54-.17,1.98-.17,.88,0,1.32,.44,1.32,1.31v10.47Z"/><path class="n" d="M234.31,84.93c0,.91-.45,1.36-1.35,1.36h-3.85c-.9,0-1.35-.45-1.35-1.36v-8.99c0-.91,.45-1.36,1.35-1.36h3.85c.9,0,1.35,.45,1.35,1.36v4.21l-.54,.56h-4.45v4.23h3.44v-2.14h1.55v2.12Zm-1.55-5.49v-3.52h-3.44v3.52h3.44Z"/><path class="n" d="M245.26,86.29h-1.6v-10.27l-3.52,.1v10.18h-1.6v-11.7h1.6v.32c.63-.08,1.25-.16,1.89-.25,.77-.1,1.4-.14,1.9-.14,.89,0,1.34,.44,1.34,1.31v10.47Z"/><path class="n" d="M253.63,86.29h-2.27c-.9,0-1.35-.45-1.35-1.36v-8.94h-1.41v-1.41h1.41v-3.65h1.58v3.65h2.04v1.41h-2.04v8.89h2.04v1.41Z"/></g></g></g></g><g><path class="n" d="M257.97,36.04h-1.08v6.42h-.62v-6.42h-1.09v-.55h2.78v.55Z"/><path class="n" d="M262.14,42.45h-.58v-4.41c0-.06,.02-.24,.06-.55l-1.14,4.3h-.12l-1.14-4.3c.04,.31,.06,.49,.06,.55v4.41h-.58v-6.96h.57l1.13,4.53s.01,.09,.02,.2c0-.04,0-.11,.02-.2l1.13-4.53h.57v6.96Z"/></g></g></g></g></svg>