<?xml version="1.0" encoding="utf-8"?>
<!-- Generator: Adobe Illustrator 26.1.0, SVG Export Plug-In . SVG Version: 6.00 Build 0)  -->
<svg version="1.1" id="Layer_1" xmlns="http://www.w3.org/2000/svg" xmlns:xlink="http://www.w3.org/1999/xlink" x="0px" y="0px"
	 viewBox="0 0 72.2 43.4" style="enable-background:new 0 0 72.2 43.4;" xml:space="preserve">
<style type="text/css">
	.st0{fill:url(#SVGID_1_);}
	.st1{filter:url(#Adobe_OpacityMaskFilter);}
	.st2{fill:#FFFFFF;}
	.st3{opacity:0.35;mask:url(#SVGID_00000142874340459035565540000011043702777989526427_);fill:#FFFFFF;}
	.st4{fill:url(#SVGID_00000038407231876645324220000017385471693565550521_);}
	.st5{filter:url(#Adobe_OpacityMaskFilter_00000176748540028398130180000009171213942232215709_);}
	.st6{opacity:0.35;mask:url(#SVGID_00000142871868029825299500000014788241482058587583_);fill:#FFFFFF;}
	.st7{fill:url(#SVGID_00000078750040948179548440000010306100567264471730_);}
	.st8{filter:url(#Adobe_OpacityMaskFilter_00000021823010691265428790000009850860271032644537_);}
	.st9{opacity:0.35;mask:url(#SVGID_00000133515121045788519250000017936817643890055567_);fill:#FFFFFF;}
	.st10{opacity:0.2;}
	.st11{filter:url(#Adobe_OpacityMaskFilter_00000088846286888261291520000017810012927121678014_);}
	.st12{opacity:0.35;mask:url(#SVGID_00000054231866603435167960000001682369252296898230_);}
	.st13{filter:url(#Adobe_OpacityMaskFilter_00000052065342095184183660000015172937607366420668_);}
	.st14{opacity:0.35;mask:url(#SVGID_00000147941266449353080920000013499058477004508070_);}
	.st15{filter:url(#Adobe_OpacityMaskFilter_00000013179816398406818970000010738092826220183449_);}
	.st16{opacity:0.35;mask:url(#SVGID_00000109010650586520483170000012258233079913238690_);}
</style>
<g>
	<g>
		<g>
			<linearGradient id="SVGID_1_" gradientUnits="userSpaceOnUse" x1="37.6817" y1="3.3632" x2="37.6817" y2="13.3632">
				<stop  offset="0.5" style="stop-color:#E3E3E3"/>
				<stop  offset="0.557" style="stop-color:#DADADA"/>
				<stop  offset="0.6499" style="stop-color:#C2C2C2"/>
				<stop  offset="0.7672" style="stop-color:#9A9A9A"/>
				<stop  offset="0.903" style="stop-color:#636363"/>
				<stop  offset="1" style="stop-color:#383838"/>
			</linearGradient>
			<path class="st0" d="M61.5,13.4H13.8c-2.8,0-5-2.2-5-5s2.2-5,5-5h47.7c2.8,0,5,2.2,5,5S64.3,13.4,61.5,13.4z"/>
			<defs>
				<filter id="Adobe_OpacityMaskFilter" filterUnits="userSpaceOnUse" x="0" y="0" width="72.2" height="9.2">
					<feColorMatrix  type="matrix" values="1 0 0 0 0  0 1 0 0 0  0 0 1 0 0  0 0 0 1 0"/>
				</filter>
			</defs>
			
				<mask maskUnits="userSpaceOnUse" x="0" y="0" width="72.2" height="9.2" id="SVGID_00000089575540408948471510000003284156048978039487_">
				<g class="st1">
					<path class="st2" d="M61.5,13.4H13.8c-2.8,0-5-2.2-5-5s2.2-5,5-5h47.7c2.8,0,5,2.2,5,5S64.3,13.4,61.5,13.4z"/>
				</g>
			</mask>
			
				<ellipse style="opacity:0.35;mask:url(#SVGID_00000089575540408948471510000003284156048978039487_);fill:#FFFFFF;" cx="36.1" cy="4.6" rx="36.1" ry="4.6"/>
		</g>
		<g>
			
				<linearGradient id="SVGID_00000078046447290688593710000002376418052475674019_" gradientUnits="userSpaceOnUse" x1="37.6817" y1="18.3632" x2="37.6817" y2="28.3632">
				<stop  offset="0.5" style="stop-color:#E3E3E3"/>
				<stop  offset="0.557" style="stop-color:#DADADA"/>
				<stop  offset="0.6499" style="stop-color:#C2C2C2"/>
				<stop  offset="0.7672" style="stop-color:#9A9A9A"/>
				<stop  offset="0.903" style="stop-color:#636363"/>
				<stop  offset="1" style="stop-color:#383838"/>
			</linearGradient>
			<path style="fill:url(#SVGID_00000078046447290688593710000002376418052475674019_);" d="M61.5,28.4H13.8c-2.8,0-5-2.2-5-5
				s2.2-5,5-5h47.7c2.8,0,5,2.2,5,5S64.3,28.4,61.5,28.4z"/>
			<defs>
				
					<filter id="Adobe_OpacityMaskFilter_00000073686156189382068160000006732560529526705581_" filterUnits="userSpaceOnUse" x="0" y="15" width="72.2" height="9.2">
					<feColorMatrix  type="matrix" values="1 0 0 0 0  0 1 0 0 0  0 0 1 0 0  0 0 0 1 0"/>
				</filter>
			</defs>
			
				<mask maskUnits="userSpaceOnUse" x="0" y="15" width="72.2" height="9.2" id="SVGID_00000087370412704366957540000014708078398474521244_">
				<g style="filter:url(#Adobe_OpacityMaskFilter_00000073686156189382068160000006732560529526705581_);">
					<path class="st2" d="M61.5,28.4H13.8c-2.8,0-5-2.2-5-5s2.2-5,5-5h47.7c2.8,0,5,2.2,5,5S64.3,28.4,61.5,28.4z"/>
				</g>
			</mask>
			
				<ellipse style="opacity:0.35;mask:url(#SVGID_00000087370412704366957540000014708078398474521244_);fill:#FFFFFF;" cx="36.1" cy="19.6" rx="36.1" ry="4.6"/>
		</g>
		<g>
			
				<linearGradient id="SVGID_00000113347649839231049930000005739219785511813792_" gradientUnits="userSpaceOnUse" x1="37.6817" y1="33.3632" x2="37.6817" y2="43.3632">
				<stop  offset="0.5" style="stop-color:#E3E3E3"/>
				<stop  offset="0.557" style="stop-color:#DADADA"/>
				<stop  offset="0.6499" style="stop-color:#C2C2C2"/>
				<stop  offset="0.7672" style="stop-color:#9A9A9A"/>
				<stop  offset="0.903" style="stop-color:#636363"/>
				<stop  offset="1" style="stop-color:#383838"/>
			</linearGradient>
			<path style="fill:url(#SVGID_00000113347649839231049930000005739219785511813792_);" d="M61.5,43.4H13.8c-2.8,0-5-2.2-5-5
				s2.2-5,5-5h47.7c2.8,0,5,2.2,5,5S64.3,43.4,61.5,43.4z"/>
			<defs>
				
					<filter id="Adobe_OpacityMaskFilter_00000167354597457356813450000008012779783601555368_" filterUnits="userSpaceOnUse" x="0" y="30" width="72.2" height="9.2">
					<feColorMatrix  type="matrix" values="1 0 0 0 0  0 1 0 0 0  0 0 1 0 0  0 0 0 1 0"/>
				</filter>
			</defs>
			
				<mask maskUnits="userSpaceOnUse" x="0" y="30" width="72.2" height="9.2" id="SVGID_00000150065874484744889280000003909300818634950790_">
				<g style="filter:url(#Adobe_OpacityMaskFilter_00000167354597457356813450000008012779783601555368_);">
					<path class="st2" d="M61.5,43.4H13.8c-2.8,0-5-2.2-5-5s2.2-5,5-5h47.7c2.8,0,5,2.2,5,5S64.3,43.4,61.5,43.4z"/>
				</g>
			</mask>
			
				<ellipse style="opacity:0.35;mask:url(#SVGID_00000150065874484744889280000003909300818634950790_);fill:#FFFFFF;" cx="36.1" cy="34.6" rx="36.1" ry="4.6"/>
		</g>
	</g>
	<g class="st10">
		<g>
			<path d="M61.5,13.4H13.8c-2.8,0-5-2.2-5-5s2.2-5,5-5h47.7c2.8,0,5,2.2,5,5S64.3,13.4,61.5,13.4z"/>
			<defs>
				
					<filter id="Adobe_OpacityMaskFilter_00000045602474058036720300000000128621402831998363_" filterUnits="userSpaceOnUse" x="0" y="0" width="72.2" height="9.2">
					<feColorMatrix  type="matrix" values="1 0 0 0 0  0 1 0 0 0  0 0 1 0 0  0 0 0 1 0"/>
				</filter>
			</defs>
			
				<mask maskUnits="userSpaceOnUse" x="0" y="0" width="72.2" height="9.2" id="SVGID_00000096040873206666860340000011811383797815760784_">
				<g style="filter:url(#Adobe_OpacityMaskFilter_00000045602474058036720300000000128621402831998363_);">
					<path class="st2" d="M61.5,13.4H13.8c-2.8,0-5-2.2-5-5s2.2-5,5-5h47.7c2.8,0,5,2.2,5,5S64.3,13.4,61.5,13.4z"/>
				</g>
			</mask>
			
				<ellipse style="opacity:0.35;mask:url(#SVGID_00000096040873206666860340000011811383797815760784_);" cx="36.1" cy="4.6" rx="36.1" ry="4.6"/>
		</g>
		<g>
			<path d="M61.5,28.4H13.8c-2.8,0-5-2.2-5-5s2.2-5,5-5h47.7c2.8,0,5,2.2,5,5S64.3,28.4,61.5,28.4z"/>
			<defs>
				
					<filter id="Adobe_OpacityMaskFilter_00000145774554902391121350000010974567923786167179_" filterUnits="userSpaceOnUse" x="0" y="15" width="72.2" height="9.2">
					<feColorMatrix  type="matrix" values="1 0 0 0 0  0 1 0 0 0  0 0 1 0 0  0 0 0 1 0"/>
				</filter>
			</defs>
			
				<mask maskUnits="userSpaceOnUse" x="0" y="15" width="72.2" height="9.2" id="SVGID_00000178190311605985133040000013907724971279670191_">
				<g style="filter:url(#Adobe_OpacityMaskFilter_00000145774554902391121350000010974567923786167179_);">
					<path class="st2" d="M61.5,28.4H13.8c-2.8,0-5-2.2-5-5s2.2-5,5-5h47.7c2.8,0,5,2.2,5,5S64.3,28.4,61.5,28.4z"/>
				</g>
			</mask>
			
				<ellipse style="opacity:0.35;mask:url(#SVGID_00000178190311605985133040000013907724971279670191_);" cx="36.1" cy="19.6" rx="36.1" ry="4.6"/>
		</g>
		<g>
			<path d="M61.5,43.4H13.8c-2.8,0-5-2.2-5-5s2.2-5,5-5h47.7c2.8,0,5,2.2,5,5S64.3,43.4,61.5,43.4z"/>
			<defs>
				
					<filter id="Adobe_OpacityMaskFilter_00000058581086423675041310000013891029535510919557_" filterUnits="userSpaceOnUse" x="0" y="30" width="72.2" height="9.2">
					<feColorMatrix  type="matrix" values="1 0 0 0 0  0 1 0 0 0  0 0 1 0 0  0 0 0 1 0"/>
				</filter>
			</defs>
			
				<mask maskUnits="userSpaceOnUse" x="0" y="30" width="72.2" height="9.2" id="SVGID_00000175305292416877977950000017978545201791928727_">
				<g style="filter:url(#Adobe_OpacityMaskFilter_00000058581086423675041310000013891029535510919557_);">
					<path class="st2" d="M61.5,43.4H13.8c-2.8,0-5-2.2-5-5s2.2-5,5-5h47.7c2.8,0,5,2.2,5,5S64.3,43.4,61.5,43.4z"/>
				</g>
			</mask>
			
				<ellipse style="opacity:0.35;mask:url(#SVGID_00000175305292416877977950000017978545201791928727_);" cx="36.1" cy="34.6" rx="36.1" ry="4.6"/>
		</g>
	</g>
</g>
</svg>
