<?xml version="1.0" encoding="utf-8"?>
<!-- Generator: Adobe Illustrator 26.1.0, SVG Export Plug-In . SVG Version: 6.00 Build 0)  -->
<svg version="1.1" xmlns="http://www.w3.org/2000/svg" xmlns:xlink="http://www.w3.org/1999/xlink" x="0px" y="0px"
	 viewBox="0 0 480 640" style="enable-background:new 0 0 480 640;" xml:space="preserve">
<style type="text/css">
	.st0{fill:url(#SVGID_1_);}
	.st1{filter:url(#Adobe_OpacityMaskFilter);}
	.st2{fill:url(#SVGID_00000168824393307473567070000015637477108131148467_);}
	.st3{mask:url(#SVGID_00000098940562205313286990000006297412261046309555_);}
	.st4{opacity:0.4;fill:#FFFFFF;}
	.st5{opacity:0.41;fill:#FFFFFF;}
	.st6{fill:url(#SVGID_00000013906938304155178530000009227555771557255352_);}
</style>
<g id="Layer_1">
	
		<radialGradient id="SVGID_1_" cx="240" cy="320" r="253.8467" fx="240" fy="547.9506" gradientTransform="matrix(1 0 0 1.1 0 -32)" gradientUnits="userSpaceOnUse">
		<stop  offset="0" style="stop-color:#D90E00"/>
		<stop  offset="0.2977" style="stop-color:#A80A00"/>
		<stop  offset="0.9742" style="stop-color:#2D0000"/>
		<stop  offset="1" style="stop-color:#280000"/>
	</radialGradient>
	<circle class="st0" cx="240" cy="320" r="223.5"/>
</g>
<g id="Layer_3">
	<defs>
		<filter id="Adobe_OpacityMaskFilter" filterUnits="userSpaceOnUse" x="-9.9" y="132.5" width="501.3" height="385.8">
			<feColorMatrix  type="matrix" values="1 0 0 0 0  0 1 0 0 0  0 0 1 0 0  0 0 0 1 0"/>
		</filter>
	</defs>
	
		<mask maskUnits="userSpaceOnUse" x="-9.9" y="132.5" width="501.3" height="385.8" id="SVGID_00000000209084950245946340000016139679943802578354_">
		<g class="st1">
			
				<radialGradient id="SVGID_00000000935688525523830440000000742170344784437902_" cx="240" cy="320" r="253.8467" fx="240" fy="547.9506" gradientTransform="matrix(1 0 0 1.1 0 -32)" gradientUnits="userSpaceOnUse">
				<stop  offset="0" style="stop-color:#FFFFFF"/>
				<stop  offset="0.1135" style="stop-color:#FBFBFB"/>
				<stop  offset="0.2377" style="stop-color:#EDEDED"/>
				<stop  offset="0.367" style="stop-color:#D7D7D7"/>
				<stop  offset="0.4998" style="stop-color:#B9B9B9"/>
				<stop  offset="0.6353" style="stop-color:#919191"/>
				<stop  offset="0.773" style="stop-color:#616161"/>
				<stop  offset="0.9099" style="stop-color:#292929"/>
				<stop  offset="1" style="stop-color:#000000"/>
			</radialGradient>
			<circle style="fill:url(#SVGID_00000000935688525523830440000000742170344784437902_);" cx="240" cy="320" r="223.5"/>
		</g>
	</mask>
	<g style="mask:url(#SVGID_00000000209084950245946340000016139679943802578354_);">
		<path class="st4" d="M446.4,166.8c-9.6-19.4-28.7-32.4-50.3-33.9c-29.6-5.3-297.7,41.6-372,72.9c-19.4,9.6-32.4,28.7-33.9,50.3
			c-1.8,57,20.3,175.2,44.8,228.4c9.6,19.4,28.7,32.4,50.3,33.9c57,1.9,316.9-46.9,372.1-72.6c19.4-9.6,32.4-28.7,33.9-50.3
			C493,333.4,472.3,222.5,446.4,166.8z"/>
		<path class="st5" d="M319.2,310.3l-138.3-47.1l27.8,142.7L319.2,310.3z"/>
	</g>
</g>
<g id="Layer_2">
	
		<linearGradient id="SVGID_00000078043835757155280990000011096690422563364749_" gradientUnits="userSpaceOnUse" x1="240" y1="101.7981" x2="240" y2="538.2019">
		<stop  offset="1.598337e-08" style="stop-color:#FFFFFF;stop-opacity:0.65"/>
		<stop  offset="0.405" style="stop-color:#FFFFFF;stop-opacity:0"/>
	</linearGradient>
	<circle style="fill:url(#SVGID_00000078043835757155280990000011096690422563364749_);" cx="240" cy="320" r="218.2"/>
</g>
</svg>
